<svg width="39" height="23" viewBox="0 0 39 23" fill="none" xmlns="http://www.w3.org/2000/svg">
<g clip-path="url(#clip0_4278_13357)">
<rect width="39" height="23" fill="white"/>
<path d="M14.928 14.36L11.76 5.944C11.504 5.29333 11.2427 4.46667 10.976 3.464C10.8587 3.96533 10.7307 4.42933 10.592 4.856C10.4533 5.272 10.3253 5.64 10.208 5.96L7.04 14.36H14.928ZM22.016 23H19.12C18.7893 23 18.5227 22.92 18.32 22.76C18.1173 22.5893 17.9627 22.3813 17.856 22.136L15.936 17.048H6.016L4.096 22.136C4.01067 22.3493 3.86133 22.5467 3.648 22.728C3.43467 22.9093 3.168 23 2.848 23H-0.048L9.088 -0.0400009H12.88L22.016 23ZM38.4008 20.392V23H25.8408V20.392H30.6408V5.96C30.6408 5.448 30.6568 4.92533 30.6888 4.392L26.9928 7.512C26.8328 7.64 26.6674 7.72533 26.4968 7.768C26.3368 7.8 26.1821 7.8 26.0328 7.768C25.8941 7.736 25.7661 7.688 25.6488 7.624C25.5421 7.54933 25.4568 7.46933 25.3928 7.384L24.3207 5.88L31.2648 -0.0880013H34.0648V20.392H38.4008Z" fill="#CC1F20"/>
</g>
<defs>
<clipPath id="clip0_4278_13357">
<rect width="39" height="23" fill="white"/>
</clipPath>
</defs>
</svg>
