<svg width="39" height="23" viewBox="0 0 39 23" fill="none" xmlns="http://www.w3.org/2000/svg">
<g clip-path="url(#clip0_4278_13359)">
<rect width="39" height="23" fill="white"/>
<path d="M14.928 14.36L11.76 5.944C11.504 5.29333 11.2427 4.46667 10.976 3.464C10.8587 3.96533 10.7307 4.42933 10.592 4.856C10.4533 5.272 10.3253 5.64 10.208 5.96L7.04 14.36H14.928ZM22.016 23H19.12C18.7893 23 18.5227 22.92 18.32 22.76C18.1173 22.5893 17.9627 22.3813 17.856 22.136L15.936 17.048H6.016L4.096 22.136C4.01067 22.3493 3.86133 22.5467 3.648 22.728C3.43467 22.9093 3.168 23 2.848 23H-0.048L9.088 -0.0400009H12.88L22.016 23ZM37.7128 19.752C38.0861 19.752 38.3794 19.864 38.5928 20.088C38.8061 20.3013 38.9128 20.5787 38.9128 20.92V23H23.3288V21.832C23.3288 21.5973 23.3768 21.352 23.4728 21.096C23.5688 20.84 23.7234 20.6053 23.9368 20.392L31.1048 13.208C31.7128 12.6 32.2514 12.0187 32.7208 11.464C33.2008 10.9093 33.6061 10.3547 33.9368 9.8C34.2781 9.24533 34.5341 8.68533 34.7048 8.12C34.8861 7.544 34.9768 6.94133 34.9768 6.312C34.9768 5.704 34.8808 5.17067 34.6888 4.712C34.5074 4.24267 34.2514 3.85867 33.9208 3.56C33.6008 3.25067 33.2114 3.02133 32.7528 2.872C32.3048 2.712 31.8088 2.632 31.2648 2.632C30.7421 2.632 30.2568 2.70667 29.8088 2.856C29.3714 3.00533 28.9768 3.21333 28.6248 3.48C28.2834 3.74667 27.9954 4.06667 27.7608 4.44C27.5368 4.80267 27.3714 5.20267 27.2648 5.64C27.1048 6.07733 26.8968 6.37067 26.6408 6.52C26.3954 6.66933 26.0328 6.70133 25.5528 6.616L23.7448 6.296C23.9048 5.208 24.2034 4.25333 24.6408 3.432C25.0888 2.61067 25.6488 1.928 26.3208 1.384C26.9928 0.829332 27.7608 0.413332 28.6248 0.136C29.4994 -0.152001 30.4434 -0.296001 31.4568 -0.296001C32.4808 -0.296001 33.4194 -0.141335 34.2728 0.167999C35.1368 0.466666 35.8781 0.898666 36.4968 1.464C37.1261 2.01867 37.6168 2.696 37.9688 3.496C38.3207 4.296 38.4967 5.19733 38.4967 6.2C38.4967 7.05333 38.3688 7.84267 38.1128 8.568C37.8674 9.29333 37.5314 9.98667 37.1048 10.648C36.6781 11.3093 36.1768 11.9547 35.6008 12.584C35.0354 13.2027 34.4381 13.832 33.8088 14.472L28.2408 20.168C28.6994 20.04 29.1581 19.9387 29.6168 19.864C30.0861 19.7893 30.5288 19.752 30.9448 19.752H37.7128Z" fill="#CC1F20"/>
</g>
<defs>
<clipPath id="clip0_4278_13359">
<rect width="39" height="23" fill="white"/>
</clipPath>
</defs>
</svg>
