<svg width="39" height="23" viewBox="0 0 39 23" fill="none" xmlns="http://www.w3.org/2000/svg">
<g clip-path="url(#clip0_4278_13347)">
<rect width="39" height="23" fill="white"/>
<path d="M11.12 20.04C11.9627 20.04 12.672 19.944 13.248 19.752C13.8347 19.5493 14.3093 19.2773 14.672 18.936C15.0453 18.5947 15.312 18.1947 15.472 17.736C15.6427 17.2667 15.728 16.7653 15.728 16.232C15.728 15.144 15.3547 14.2907 14.608 13.672C13.872 13.0427 12.704 12.728 11.104 12.728H6.48V20.04H11.12ZM6.48 2.888V10.088H10.224C11.824 10.088 13.0187 9.77867 13.808 9.16C14.5973 8.54133 14.992 7.65067 14.992 6.488C14.992 5.21867 14.6187 4.30133 13.872 3.736C13.136 3.17067 11.9787 2.888 10.4 2.888H6.48ZM10.4 -0.0400009C11.872 -0.0400009 13.1307 0.103999 14.176 0.391998C15.2213 0.669332 16.08 1.06933 16.752 1.592C17.424 2.11467 17.9147 2.75467 18.224 3.512C18.544 4.25867 18.704 5.10133 18.704 6.04C18.704 6.584 18.6187 7.112 18.448 7.624C18.288 8.12533 18.032 8.6 17.68 9.048C17.3387 9.48533 16.9067 9.88 16.384 10.232C15.8613 10.584 15.2427 10.8773 14.528 11.112C17.792 11.8053 19.424 13.5387 19.424 16.312C19.424 17.2933 19.2373 18.1947 18.864 19.016C18.5013 19.8267 17.968 20.5307 17.264 21.128C16.5707 21.7147 15.712 22.1733 14.688 22.504C13.664 22.8347 12.496 23 11.184 23H2.736V-0.0400009H10.4ZM37.3383 20.392V23H24.7783V20.392H29.5783V5.96C29.5783 5.448 29.5943 4.92533 29.6263 4.392L25.9303 7.512C25.7703 7.64 25.6049 7.72533 25.4343 7.768C25.2743 7.8 25.1196 7.8 24.9703 7.768C24.8316 7.736 24.7036 7.688 24.5863 7.624C24.4796 7.54933 24.3943 7.46933 24.3303 7.384L23.2582 5.88L30.2023 -0.0880013H33.0023V20.392H37.3383Z" fill="#9E9E9E"/>
</g>
<defs>
<clipPath id="clip0_4278_13347">
<rect width="39" height="23" fill="white"/>
</clipPath>
</defs>
</svg>
