<svg width="39" height="23" viewBox="0 0 39 23" fill="none" xmlns="http://www.w3.org/2000/svg">
<g clip-path="url(#clip0_4278_13363)">
<rect width="39" height="23" fill="white"/>
<path d="M11.12 20.04C11.9627 20.04 12.672 19.944 13.248 19.752C13.8347 19.5493 14.3093 19.2773 14.672 18.936C15.0453 18.5947 15.312 18.1947 15.472 17.736C15.6427 17.2667 15.728 16.7653 15.728 16.232C15.728 15.144 15.3547 14.2907 14.608 13.672C13.872 13.0427 12.704 12.728 11.104 12.728H6.48V20.04H11.12ZM6.48 2.888V10.088H10.224C11.824 10.088 13.0187 9.77867 13.808 9.16C14.5973 8.54133 14.992 7.65067 14.992 6.488C14.992 5.21867 14.6187 4.30133 13.872 3.736C13.136 3.17067 11.9787 2.888 10.4 2.888H6.48ZM10.4 -0.0400009C11.872 -0.0400009 13.1307 0.103999 14.176 0.391998C15.2213 0.669332 16.08 1.06933 16.752 1.592C17.424 2.11467 17.9147 2.75467 18.224 3.512C18.544 4.25867 18.704 5.10133 18.704 6.04C18.704 6.584 18.6187 7.112 18.448 7.624C18.288 8.12533 18.032 8.6 17.68 9.048C17.3387 9.48533 16.9067 9.88 16.384 10.232C15.8613 10.584 15.2427 10.8773 14.528 11.112C17.792 11.8053 19.424 13.5387 19.424 16.312C19.424 17.2933 19.2373 18.1947 18.864 19.016C18.5013 19.8267 17.968 20.5307 17.264 21.128C16.5707 21.7147 15.712 22.1733 14.688 22.504C13.664 22.8347 12.496 23 11.184 23H2.736V-0.0400009H10.4ZM36.6503 19.752C37.0236 19.752 37.3169 19.864 37.5303 20.088C37.7436 20.3013 37.8503 20.5787 37.8503 20.92V23H22.2663V21.832C22.2663 21.5973 22.3143 21.352 22.4103 21.096C22.5063 20.84 22.6609 20.6053 22.8743 20.392L30.0423 13.208C30.6503 12.6 31.1889 12.0187 31.6583 11.464C32.1383 10.9093 32.5436 10.3547 32.8743 9.8C33.2156 9.24533 33.4716 8.68533 33.6423 8.12C33.8236 7.544 33.9143 6.94133 33.9143 6.312C33.9143 5.704 33.8183 5.17067 33.6263 4.712C33.4449 4.24267 33.1889 3.85867 32.8583 3.56C32.5383 3.25067 32.1489 3.02133 31.6903 2.872C31.2423 2.712 30.7463 2.632 30.2023 2.632C29.6796 2.632 29.1943 2.70667 28.7463 2.856C28.3089 3.00533 27.9143 3.21333 27.5623 3.48C27.2209 3.74667 26.9329 4.06667 26.6983 4.44C26.4743 4.80267 26.3089 5.20267 26.2023 5.64C26.0423 6.07733 25.8343 6.37067 25.5783 6.52C25.3329 6.66933 24.9703 6.70133 24.4903 6.616L22.6823 6.296C22.8423 5.208 23.1409 4.25333 23.5783 3.432C24.0263 2.61067 24.5863 1.928 25.2583 1.384C25.9303 0.829332 26.6983 0.413332 27.5623 0.136C28.4369 -0.152001 29.3809 -0.296001 30.3943 -0.296001C31.4183 -0.296001 32.3569 -0.141335 33.2103 0.167999C34.0743 0.466666 34.8156 0.898666 35.4343 1.464C36.0636 2.01867 36.5543 2.696 36.9062 3.496C37.2582 4.296 37.4342 5.19733 37.4342 6.2C37.4342 7.05333 37.3063 7.84267 37.0503 8.568C36.8049 9.29333 36.4689 9.98667 36.0423 10.648C35.6156 11.3093 35.1143 11.9547 34.5383 12.584C33.9729 13.2027 33.3756 13.832 32.7463 14.472L27.1783 20.168C27.6369 20.04 28.0956 19.9387 28.5543 19.864C29.0236 19.7893 29.4663 19.752 29.8823 19.752H36.6503Z" fill="#CC1F20"/>
</g>
<defs>
<clipPath id="clip0_4278_13363">
<rect width="39" height="23" fill="white"/>
</clipPath>
</defs>
</svg>
