<svg width="39" height="23" viewBox="0 0 39 23" fill="none" xmlns="http://www.w3.org/2000/svg">
<g clip-path="url(#clip0_4278_13365)">
<rect width="39" height="23" fill="white"/>
<path d="M18.736 17.864C18.9387 17.864 19.1147 17.944 19.264 18.104L20.752 19.72C19.8133 20.8507 18.6613 21.7253 17.296 22.344C15.9307 22.952 14.2987 23.256 12.4 23.256C10.7147 23.256 9.18933 22.968 7.824 22.392C6.46933 21.8053 5.312 20.9947 4.352 19.96C3.392 18.9147 2.65067 17.672 2.128 16.232C1.616 14.792 1.36 13.208 1.36 11.48C1.36 9.752 1.632 8.168 2.176 6.728C2.73067 5.27733 3.504 4.03467 4.496 3C5.49867 1.95467 6.69333 1.144 8.08 0.567999C9.47733 -0.00800133 11.0133 -0.296001 12.688 -0.296001C14.352 -0.296001 15.8187 -0.0240014 17.088 0.519999C18.368 1.05333 19.4773 1.768 20.416 2.664L19.184 4.408C19.0987 4.52533 18.9973 4.62667 18.88 4.712C18.7627 4.79733 18.6027 4.84 18.4 4.84C18.1867 4.84 17.9413 4.744 17.664 4.552C17.3973 4.34933 17.0507 4.13067 16.624 3.896C16.208 3.65067 15.68 3.432 15.04 3.24C14.4107 3.03733 13.6213 2.936 12.672 2.936C11.5733 2.936 10.5653 3.128 9.648 3.512C8.73067 3.896 7.94133 4.456 7.28 5.192C6.61867 5.928 6.10133 6.824 5.728 7.88C5.36533 8.936 5.184 10.136 5.184 11.48C5.184 12.8347 5.376 14.0453 5.76 15.112C6.144 16.168 6.672 17.064 7.344 17.8C8.016 18.5253 8.80533 19.08 9.712 19.464C10.6187 19.848 11.5947 20.04 12.64 20.04C13.28 20.04 13.8507 20.008 14.352 19.944C14.864 19.8693 15.3333 19.7573 15.76 19.608C16.1867 19.448 16.5867 19.2507 16.96 19.016C17.344 18.7813 17.7227 18.4933 18.096 18.152C18.3093 17.96 18.5227 17.864 18.736 17.864ZM37.682 20.392V23H25.122V20.392H29.922V5.96C29.922 5.448 29.938 4.92533 29.97 4.392L26.274 7.512C26.114 7.64 25.9487 7.72533 25.778 7.768C25.618 7.8 25.4633 7.8 25.314 7.768C25.1753 7.736 25.0473 7.688 24.93 7.624C24.8233 7.54933 24.738 7.46933 24.674 7.384L23.602 5.88L30.546 -0.0880013H33.346V20.392H37.682Z" fill="#CC1F20"/>
</g>
<defs>
<clipPath id="clip0_4278_13365">
<rect width="39" height="23" fill="white"/>
</clipPath>
</defs>
</svg>
