<svg width="39" height="23" viewBox="0 0 39 23" fill="none" xmlns="http://www.w3.org/2000/svg">
<g clip-path="url(#clip0_4278_13367)">
<rect width="39" height="23" fill="white"/>
<path d="M18.736 17.864C18.9387 17.864 19.1147 17.944 19.264 18.104L20.752 19.72C19.8133 20.8507 18.6613 21.7253 17.296 22.344C15.9307 22.952 14.2987 23.256 12.4 23.256C10.7147 23.256 9.18933 22.968 7.824 22.392C6.46933 21.8053 5.312 20.9947 4.352 19.96C3.392 18.9147 2.65067 17.672 2.128 16.232C1.616 14.792 1.36 13.208 1.36 11.48C1.36 9.752 1.632 8.168 2.176 6.728C2.73067 5.27733 3.504 4.03467 4.496 3C5.49867 1.95467 6.69333 1.144 8.08 0.567999C9.47733 -0.00800133 11.0133 -0.296001 12.688 -0.296001C14.352 -0.296001 15.8187 -0.0240014 17.088 0.519999C18.368 1.05333 19.4773 1.768 20.416 2.664L19.184 4.408C19.0987 4.52533 18.9973 4.62667 18.88 4.712C18.7627 4.79733 18.6027 4.84 18.4 4.84C18.1867 4.84 17.9413 4.744 17.664 4.552C17.3973 4.34933 17.0507 4.13067 16.624 3.896C16.208 3.65067 15.68 3.432 15.04 3.24C14.4107 3.03733 13.6213 2.936 12.672 2.936C11.5733 2.936 10.5653 3.128 9.648 3.512C8.73067 3.896 7.94133 4.456 7.28 5.192C6.61867 5.928 6.10133 6.824 5.728 7.88C5.36533 8.936 5.184 10.136 5.184 11.48C5.184 12.8347 5.376 14.0453 5.76 15.112C6.144 16.168 6.672 17.064 7.344 17.8C8.016 18.5253 8.80533 19.08 9.712 19.464C10.6187 19.848 11.5947 20.04 12.64 20.04C13.28 20.04 13.8507 20.008 14.352 19.944C14.864 19.8693 15.3333 19.7573 15.76 19.608C16.1867 19.448 16.5867 19.2507 16.96 19.016C17.344 18.7813 17.7227 18.4933 18.096 18.152C18.3093 17.96 18.5227 17.864 18.736 17.864ZM36.994 19.752C37.3673 19.752 37.6607 19.864 37.874 20.088C38.0873 20.3013 38.194 20.5787 38.194 20.92V23H22.61V21.832C22.61 21.5973 22.658 21.352 22.754 21.096C22.85 20.84 23.0047 20.6053 23.218 20.392L30.386 13.208C30.994 12.6 31.5327 12.0187 32.002 11.464C32.482 10.9093 32.8873 10.3547 33.218 9.8C33.5593 9.24533 33.8153 8.68533 33.986 8.12C34.1673 7.544 34.258 6.94133 34.258 6.312C34.258 5.704 34.162 5.17067 33.97 4.712C33.7887 4.24267 33.5327 3.85867 33.202 3.56C32.882 3.25067 32.4927 3.02133 32.034 2.872C31.586 2.712 31.09 2.632 30.546 2.632C30.0233 2.632 29.538 2.70667 29.09 2.856C28.6527 3.00533 28.258 3.21333 27.906 3.48C27.5647 3.74667 27.2767 4.06667 27.042 4.44C26.818 4.80267 26.6527 5.20267 26.546 5.64C26.386 6.07733 26.178 6.37067 25.922 6.52C25.6767 6.66933 25.314 6.70133 24.834 6.616L23.026 6.296C23.186 5.208 23.4847 4.25333 23.922 3.432C24.37 2.61067 24.93 1.928 25.602 1.384C26.274 0.829332 27.042 0.413332 27.906 0.136C28.7807 -0.152001 29.7247 -0.296001 30.738 -0.296001C31.762 -0.296001 32.7007 -0.141335 33.554 0.167999C34.418 0.466666 35.1593 0.898666 35.778 1.464C36.4073 2.01867 36.898 2.696 37.25 3.496C37.602 4.296 37.778 5.19733 37.778 6.2C37.778 7.05333 37.65 7.84267 37.394 8.568C37.1487 9.29333 36.8127 9.98667 36.386 10.648C35.9593 11.3093 35.458 11.9547 34.882 12.584C34.3167 13.2027 33.7193 13.832 33.09 14.472L27.522 20.168C27.9807 20.04 28.4393 19.9387 28.898 19.864C29.3673 19.7893 29.81 19.752 30.226 19.752H36.994Z" fill="#CC1F20"/>
</g>
<defs>
<clipPath id="clip0_4278_13367">
<rect width="39" height="23" fill="white"/>
</clipPath>
</defs>
</svg>
