<?xml version="1.0" encoding="UTF-8"?>
<svg width="30px" height="24px" viewBox="0 0 30 24" version="1.1" xmlns="http://www.w3.org/2000/svg" xmlns:xlink="http://www.w3.org/1999/xlink">
    <title>Group 6</title>
    <defs>
        <path d="M5.56920307,6.49554346 C5.65848889,6.49554346 5.75893544,6.45090055 5.8258998,6.38393618 L11.0267989,1.18303712 C11.0937632,1.11607276 11.1384061,1.01562621 11.1384061,0.92634039 C11.1384061,0.837054569 11.0937632,0.736608021 11.0267989,0.669643655 L10.4687625,0.111607276 C10.4017981,0.0446429104 10.3013516,0 10.2120657,0 C10.1227799,0 10.0223334,0.0446429104 9.95536901,0.111607276 L5.56920307,4.49777322 L1.18303712,0.111607276 C1.11607276,0.0446429104 1.01562621,0 0.92634039,0 C0.825893842,0 0.736608021,0.0446429104 0.669643655,0.111607276 L0.111607276,0.669643655 C0.0446429104,0.736608021 0,0.837054569 0,0.92634039 C0,1.01562621 0.0446429104,1.11607276 0.111607276,1.18303712 L5.31250633,6.38393618 C5.3794707,6.45090055 5.47991725,6.49554346 5.56920307,6.49554346 Z" id="path-1"></path>
        <path d="M5.56920307,6.49554346 C5.65848889,6.49554346 5.75893544,6.45090055 5.8258998,6.38393618 L11.0267989,1.18303712 C11.0937632,1.11607276 11.1384061,1.01562621 11.1384061,0.92634039 C11.1384061,0.837054569 11.0937632,0.736608021 11.0267989,0.669643655 L10.4687625,0.111607276 C10.4017981,0.0446429104 10.3013516,0 10.2120657,0 C10.1227799,0 10.0223334,0.0446429104 9.95536901,0.111607276 L5.56920307,4.49777322 L1.18303712,0.111607276 C1.11607276,0.0446429104 1.01562621,0 0.92634039,0 C0.825893842,0 0.736608021,0.0446429104 0.669643655,0.111607276 L0.111607276,0.669643655 C0.0446429104,0.736608021 0,0.837054569 0,0.92634039 C0,1.01562621 0.0446429104,1.11607276 0.111607276,1.18303712 L5.31250633,6.38393618 C5.3794707,6.45090055 5.47991725,6.49554346 5.56920307,6.49554346 Z" id="path-3"></path>
    </defs>
    <g id="Clientes-/-Proyectos-Iteration" stroke="none" stroke-width="1" fill="none" fill-rule="evenodd">
        <g id="Clientes-/-proyectos---Position--Skilles-Copy" transform="translate(-514.000000, -111.000000)">
            <g id="Group-13" transform="translate(529.000000, 123.000000) scale(-1, 1) translate(-529.000000, -123.000000) translate(514.000000, 111.000000)">
                <g id="Group-6">
                    <g id="Icons/Arrow" transform="translate(18.000000, 12.000000) scale(-1, 1) rotate(90.000000) translate(-18.000000, -12.000000) translate(6.000000, 0.000000)">
                        <g id="Colors/Azul" transform="translate(6.000000, 9.000000)">
                            <mask id="mask-2" fill="white">
                                <use xlink:href="#path-1"></use>
                            </mask>
                            <use id="Mask" fill="#000000" fill-rule="nonzero" xlink:href="#path-1"></use>
                            <g id="Colors/primarios/Gris" mask="url(#mask-2)" fill="#949494">
                                <g transform="translate(-5.000000, -7.000000)" id="Rectangle">
                                    <rect x="0" y="0" width="22.4782609" height="20"></rect>
                                </g>
                            </g>
                        </g>
                    </g>
                    <g id="Icons/Arrow" transform="translate(12.000000, 12.000000) scale(-1, 1) rotate(90.000000) translate(-12.000000, -12.000000) ">
                        <g id="Colors/Azul" transform="translate(6.000000, 9.000000)">
                            <mask id="mask-4" fill="white">
                                <use xlink:href="#path-3"></use>
                            </mask>
                            <use id="Mask" fill="#000000" fill-rule="nonzero" xlink:href="#path-3"></use>
                            <g id="Colors/primarios/Gris" mask="url(#mask-4)" fill="#949494">
                                <g transform="translate(-5.000000, -7.000000)" id="Rectangle">
                                    <rect x="0" y="0" width="22.4782609" height="20"></rect>
                                </g>
                            </g>
                        </g>
                    </g>
                </g>
            </g>
        </g>
    </g>
</svg>
