<?xml version="1.0" encoding="UTF-8"?>
<svg width="12px" height="13px" viewBox="0 0 12 13" version="1.1" xmlns="http://www.w3.org/2000/svg" xmlns:xlink="http://www.w3.org/1999/xlink">
    <title>Calendar. svg</title>
    <g id="Visualización-Competencias" stroke="none" stroke-width="1" fill="none" fill-rule="evenodd">
        <g id="Admin-visualizar-competencias-Copy-2" transform="translate(-878.000000, -310.000000)" fill="#CC1F20" fill-rule="nonzero">
            <g id="Group-2" transform="translate(867.000000, 299.000000)">
                <path d="M21.0137134,12.015625 L20.0445479,12.015625 L20.0445479,11.40625 C20.0445479,11.1818984 19.8936319,11 19.7074468,11 C19.5212617,11 19.3703457,11.1818984 19.3703457,11.40625 L19.3703457,12.015625 L14.6509309,12.015625 L14.6509309,11.40625 C14.6509309,11.1818984 14.5000149,11 14.3138298,11 C14.1276447,11 13.9767287,11.1818984 13.9767287,11.40625 L13.9767287,12.015625 L13.0075632,12.015625 C12.2408057,12.015625 11.6170213,12.7673652 11.6170213,13.6914062 L11.6170213,22.3242188 C11.6170213,23.2482598 12.2408057,24 13.0075632,24 L21.0137134,24 C21.7804709,24 22.4042553,23.2482598 22.4042553,22.3242188 L22.4042553,13.6914062 C22.4042553,12.7673652 21.7804709,12.015625 21.0137134,12.015625 Z M21.7300532,22.3242188 C21.7300532,22.8010039 21.4093437,23.1875 21.0137134,23.1875 L13.0075632,23.1875 C12.6119329,23.1875 12.2912234,22.8010039 12.2912234,22.3242188 L12.2912234,15.5957031 C12.2912234,15.5255996 12.3383965,15.46875 12.3965675,15.46875 L21.6247091,15.46875 C21.6828801,15.46875 21.7300532,15.5255996 21.7300532,15.5957031 L21.7300532,22.3242188 Z" id="Calendar.-svg"></path>
            </g>
        </g>
    </g>
</svg>
