<svg width="19" height="21" viewBox="0 0 19 21" fill="none" xmlns="http://www.w3.org/2000/svg">
<path d="M1.69584 1.86724C0.769589 1.86724 0 2.63683 0 3.56308V7.46164C0 8.27381 0.40683 9.0324 1.08257 9.48296L5.26897 12.274C5.47466 12.4112 5.59444 12.6402 5.59444 12.8873V19.502V19.5018C5.59577 19.7733 5.7269 20.0278 5.94735 20.1862C6.1676 20.3448 6.4507 20.3881 6.70841 20.3028L12.3092 18.438C12.4767 18.3812 12.6224 18.2735 12.7255 18.1299C12.8288 17.9863 12.8844 17.8139 12.8848 17.637V12.8872C12.8848 12.6401 13.0107 12.4111 13.2165 12.274L17.3967 9.4829C18.0724 9.03255 18.4793 8.27376 18.4793 7.46159V3.56302C18.4793 2.63678 17.7097 1.86719 16.7834 1.86719L13.9049 1.86738C13.6801 1.86643 13.464 1.95499 13.3045 2.11337C13.1448 2.27194 13.0547 2.48728 13.054 2.71205C13.053 2.93818 13.1423 3.15503 13.3022 3.31491C13.4619 3.47461 13.679 3.56412 13.9049 3.56317H16.7836V7.46174C16.7836 7.70886 16.6638 7.93782 16.4581 8.075L12.2717 10.8661C11.596 11.3166 11.1891 12.0752 11.1891 12.8874V17.0238L7.29057 18.3255V12.8875C7.29057 12.0753 6.88355 11.3167 6.20801 10.8661L2.0216 8.0751C1.81591 7.93792 1.69613 7.70895 1.69613 7.46183V3.56327H4.58106H4.58087C4.80567 3.56251 5.02119 3.47244 5.17956 3.31273C5.33794 3.15322 5.4265 2.93712 5.42555 2.71216C5.42479 2.4883 5.33567 2.27391 5.17729 2.11575C5.0191 1.95737 4.80471 1.86824 4.58088 1.86748L1.69584 1.86724Z" fill="#CC1F20"/>
<path d="M10.5065 0.249589L6.77689 3.97919V3.97938C6.61907 4.13814 6.53052 4.35291 6.53052 4.57695C6.53052 4.80081 6.61907 5.01577 6.77689 5.17453C6.93583 5.33253 7.1506 5.42108 7.37465 5.42108C7.59851 5.42108 7.81328 5.33253 7.97223 5.17453L11.7081 1.44493C11.8659 1.28617 11.9546 1.07121 11.9546 0.847352C11.9546 0.62331 11.8659 0.40854 11.7081 0.249585C11.5489 0.0898781 11.3328 0 11.1073 0C10.8819 0 10.6657 0.089883 10.5065 0.249585L10.5065 0.249589Z" fill="#CC1F20"/>
<path d="M6.77689 0.246364C6.61907 0.40531 6.53052 0.620079 6.53052 0.844131C6.53052 1.06798 6.61907 1.28294 6.77689 1.4417L10.5065 5.17131C10.6656 5.3312 10.8819 5.42089 11.1073 5.42089C11.3328 5.42089 11.5489 5.3312 11.708 5.17131C11.8658 5.01255 11.9546 4.79759 11.9546 4.57373C11.9546 4.34969 11.8658 4.13492 11.708 3.97616L7.97218 0.246557V0.246368C7.81323 0.0885557 7.59846 0 7.3746 0C7.15056 0 6.93579 0.0885557 6.77684 0.246368L6.77689 0.246364Z" fill="#CC1F20"/>
</svg>
