<?xml version="1.0" encoding="UTF-8"?>
<svg width="16px" height="16px" viewBox="0 0 16 16" version="1.1" xmlns="http://www.w3.org/2000/svg" xmlns:xlink="http://www.w3.org/1999/xlink">
    <title>Close icon</title>
    <g id="Hoja-de-vida-de-candidatos" stroke="none" stroke-width="1" fill="none" fill-rule="evenodd">
        <g id="HAM---Hoja-de-vida-del-candidato---Observaciones-Alerta" transform="translate(-1478.000000, -790.000000)" fill="#FFFFFF" fill-rule="nonzero">
            <g id="Group-27" transform="translate(741.000000, 771.000000)">
                <path d="M749.875421,35 C750.212121,35 750.548822,34.8653199 750.791246,34.6228956 L752.622896,32.7912458 C752.86532,32.5488215 753,32.2121212 753,31.8754209 C753,31.5387205 752.86532,31.2020202 752.622896,30.959596 L748.6633,27 L752.622896,23.040404 C752.86532,22.7979798 753,22.4612795 753,22.1245791 C753,21.7878788 752.86532,21.4511785 752.622896,21.2087542 L750.791246,19.3771044 C750.548822,19.1346801 750.212121,19 749.875421,19 C749.538721,19 749.20202,19.1346801 748.959596,19.3771044 L745,23.3367003 L741.040404,19.3771044 C740.79798,19.1346801 740.461279,19 740.124579,19 C739.787879,19 739.451178,19.1346801 739.208754,19.3771044 L737.377104,21.2087542 C737.13468,21.4511785 737,21.7878788 737,22.1245791 C737,22.4612795 737.13468,22.7979798 737.377104,23.040404 L741.3367,27 L737.377104,30.959596 C737.13468,31.2020202 737,31.5387205 737,31.8754209 C737,32.2121212 737.13468,32.5488215 737.377104,32.7912458 L739.208754,34.6228956 C739.451178,34.8653199 739.787879,35 740.124579,35 C740.461279,35 740.79798,34.8653199 741.040404,34.6228956 L745,30.6632997 L748.959596,34.6228956 C749.20202,34.8653199 749.538721,35 749.875421,35 Z" id="Close-icon"></path>
            </g>
        </g>
    </g>
</svg>
