<?xml version="1.0" encoding="UTF-8"?>
<svg width="17px" height="19px" viewBox="0 0 17 19" version="1.1" xmlns="http://www.w3.org/2000/svg" xmlns:xlink="http://www.w3.org/1999/xlink">
    <!-- Generator: Sketch 64 (93537) - https://sketch.com -->
    <title>Icon Delete</title>
    <desc>Created with Sketch.</desc>
    <defs>
        <path d="M13.8705357,18.321429 L14.7544643,18.321429 C14.9985544,18.321429 15.1964286,18.1235548 15.1964286,17.8794647 L15.1964286,9.92410755 C15.1964286,9.68001741 14.9985544,9.48214326 14.7544643,9.48214326 L13.8705357,9.48214326 C13.6264456,9.48214326 13.4285714,9.68001741 13.4285714,9.92410755 L13.4285714,17.8794647 C13.4285714,18.1235548 13.6264456,18.321429 13.8705357,18.321429 Z M19.9107143,5.94642897 L16.8755246,5.94642897 L15.6232924,3.85814772 C15.3036239,3.32548996 14.7278366,2.99970456 14.1066183,3.0000002 L10.3933817,3.0000002 C9.77242594,3.0000002 9.19697768,3.32571519 8.8774442,3.85814772 L7.62447545,5.94642897 L4.58928571,5.94642897 C4.2638322,5.94642897 4,6.21026117 4,6.53571469 L4,7.1250004 C4,7.45045392 4.2638322,7.71428612 4.58928571,7.71428612 L5.17857143,7.71428612 L5.17857143,20.0892861 C5.17857143,21.0656467 5.97006803,21.8571433 6.94642857,21.8571433 L17.5535714,21.8571433 C18.529932,21.8571433 19.3214286,21.0656467 19.3214286,20.0892861 L19.3214286,7.71428612 L19.9107143,7.71428612 C20.2361678,7.71428612 20.5,7.45045392 20.5,7.1250004 L20.5,6.53571469 C20.5,6.21026117 20.2361678,5.94642897 19.9107143,5.94642897 Z M10.3289286,4.87503388 C10.3689942,4.808346 10.4411755,4.76763913 10.5189732,4.76785667 L13.9810268,4.76785667 C14.0586933,4.76776879 14.1307049,4.80845883 14.1707031,4.87503388 L14.8137612,5.94642897 L9.68623884,5.94642897 L10.3289286,4.87503388 Z M17.5535714,20.0892861 L6.94642857,20.0892861 L6.94642857,7.71428612 L17.5535714,7.71428612 L17.5535714,20.0892861 Z M9.74553571,18.321429 L10.6294643,18.321429 C10.8735544,18.321429 11.0714286,18.1235548 11.0714286,17.8794647 L11.0714286,9.92410755 C11.0714286,9.68001741 10.8735544,9.48214326 10.6294643,9.48214326 L9.74553571,9.48214326 C9.50144558,9.48214326 9.30357143,9.68001741 9.30357143,9.92410755 L9.30357143,17.8794647 C9.30357143,18.1235548 9.50144558,18.321429 9.74553571,18.321429 Z" id="path-1"></path>
    </defs>
    <g id="Hoja-de-vida-de-candidatos" stroke="none" stroke-width="1" fill="none" fill-rule="evenodd">
        <g id="Configurar-reporte-Copy" transform="translate(-1800.000000, -157.000000)">
            <g id="Icons/Delete" transform="translate(1796.000000, 154.000000)">
                <mask id="mask-2" fill="white">
                    <use xlink:href="#path-1"></use>
                </mask>
                <use id="Mask" fill="#000000" fill-rule="nonzero" xlink:href="#path-1"></use>
                <g id="Colors/Morado-Light" mask="url(#mask-2)" fill="#CC1F20" fill-rule="evenodd">
                    <rect id="Rectangle" x="0" y="0" width="24.5217391" height="24"></rect>
                </g>
            </g>
        </g>
    </g>
</svg>
