<?xml version="1.0" encoding="UTF-8"?>
<svg width="19px" height="20px" viewBox="0 0 19 20" version="1.1" xmlns="http://www.w3.org/2000/svg" xmlns:xlink="http://www.w3.org/1999/xlink">
    <!-- Generator: Sketch 64 (93537) - https://sketch.com -->
    <title>Icons/duplicate Copy 10</title>
    <desc>Created with Sketch.</desc>
    <defs>
        <path d="M21.4758785,7.54785156 L19.7651363,9.34863281 C19.5907222,9.53222656 19.308691,9.53222656 19.1342769,9.34863281 L15.0151363,5.01269531 C14.8407222,4.82910156 14.8407222,4.53222656 15.0151363,4.34863281 L16.7258785,2.54785156 C17.4198238,1.81738281 18.5479488,1.81738281 19.2456051,2.54785156 L21.4758785,4.89550781 C22.1735347,5.62597656 22.1735347,6.81347656 21.4758785,7.54785156 Z M13.5456051,5.89550781 L3.80068319,16.1533203 L3.01396444,20.8994141 C2.90634725,21.5400391 3.43701131,22.0947266 4.04560506,21.9853516 L8.55439412,21.1533203 L18.299316,10.8955078 C18.4737301,10.7119141 18.4737301,10.4150391 18.299316,10.2314453 L14.1801754,5.89550781 C14.0020504,5.71191406 13.7200191,5.71191406 13.5456051,5.89550781 Z M7.60439412,15.2744141 C7.40029256,15.0595703 7.40029256,14.7158203 7.60439412,14.5009766 L13.3192379,8.48535156 C13.5233394,8.27050781 13.8499019,8.27050781 14.0540035,8.48535156 C14.2581051,8.70019531 14.2581051,9.04394531 14.0540035,9.25878906 L8.33915975,15.2744141 C8.13505819,15.4892578 7.80849569,15.4892578 7.60439412,15.2744141 L7.60439412,15.2744141 Z M6.26474569,18.5595703 L8.04599569,18.5595703 L8.04599569,19.9775391 L5.652441,20.4189453 L4.49833944,19.2041016 L4.91767537,16.6845703 L6.26474569,16.6845703 L6.26474569,18.5595703 Z" id="path-1"></path>
    </defs>
    <g id="Hoja-de-vida-de-candidatos" stroke="none" stroke-width="1" fill="none" fill-rule="evenodd">
        <g id="Areas-de-Valoración" transform="translate(-1591.000000, -293.000000)">
            <g id="Icons/Edit" transform="translate(1588.000000, 291.000000)">
                <mask id="mask-2" fill="white">
                    <use xlink:href="#path-1"></use>
                </mask>
                <use id="Mask" fill="#000000" fill-rule="nonzero" xlink:href="#path-1"></use>
                <g id="Colors/Morado-Light" mask="url(#mask-2)" fill="#CC1F20" fill-rule="evenodd">
                    <g transform="translate(2.000000, 0.947368)" id="Rectangle">
                        <rect x="0" y="0" width="20.4347826" height="23.1578947"></rect>
                    </g>
                </g>
            </g>
        </g>
    </g>
</svg>
