<?xml version="1.0" encoding="UTF-8"?>
<svg width="27px" height="15px" viewBox="0 0 27 15" version="1.1" xmlns="http://www.w3.org/2000/svg" xmlns:xlink="http://www.w3.org/1999/xlink">
    <title>Expandible cards</title>
    <defs>
        <path d="M12.9782321,14.6149728 C13.1863,14.6149728 13.4203763,14.5145262 13.5764272,14.3638564 L25.6963795,2.66183353 C25.8524304,2.51116371 25.9564643,2.28515897 25.9564643,2.08426588 C25.9564643,1.88337278 25.8524304,1.65736805 25.6963795,1.50669822 L24.3959554,0.251116371 C24.2399045,0.100446548 24.0058282,0 23.7977604,0 C23.5896925,0 23.3556162,0.100446548 23.1995653,0.251116371 L12.9782321,10.1199897 L2.75689901,0.251116371 C2.60084813,0.100446548 2.36677179,0 2.15870394,0 C1.92462761,0 1.71655976,0.100446548 1.56050888,0.251116371 L0.260084813,1.50669822 C0.104033925,1.65736805 0,1.88337278 0,2.08426588 C0,2.28515897 0.104033925,2.51116371 0.260084813,2.66183353 L12.3800371,14.3638564 C12.536088,14.5145262 12.7701643,14.6149728 12.9782321,14.6149728 Z" id="path-1"></path>
    </defs>
    <g id="Page-1" stroke="none" stroke-width="1" fill="none" fill-rule="evenodd">
        <g id="UI-Kit-App-internas-PSL" transform="translate(-979.000000, -2666.000000)">
            <g id="Icons/Arrow" transform="translate(979.000000, 2666.000000)">
                <g id="Colors/Azul" transform="translate(0.517857, 0.250000)">
                    <mask id="mask-2" fill="white">
                        <use xlink:href="#path-1"></use>
                    </mask>
                    <use id="Expandible-cards" fill="#CC1F20" fill-rule="nonzero" xlink:href="#path-1"></use>
                </g>
            </g>
        </g>
    </g>
</svg>
