<?xml version="1.0" encoding="UTF-8"?>
<svg width="18px" height="16px" viewBox="0 0 18 16" version="1.1" xmlns="http://www.w3.org/2000/svg" xmlns:xlink="http://www.w3.org/1999/xlink">
    <!-- Generator: Sketch 61.2 (89653) - https://sketch.com -->
    <title>Mask</title>
    <desc>Created with Sketch.</desc>
    <defs>
        <path d="M8.357154,11.1194345 C8.43751125,11.1194345 8.52791316,11.0792558 8.58818109,11.0189879 L15.137297,4.46987203 L16.9051565,6.23773153 C17.0256923,6.35826741 17.1864068,6.42858 17.357166,6.42858 C17.708729,6.42858 18.000024,6.13728497 18.000024,5.785722 L18.000024,0.642858 C18.000024,0.291295031 17.708729,0 17.357166,0 L12.214302,0 C11.862739,0 11.571444,0.291295031 11.571444,0.642858 C11.571444,0.813617156 11.6417566,0.974331656 11.7622925,1.09486753 L13.530152,2.86272703 L6.98103609,9.41184291 C6.92076816,9.47211084 6.88058953,9.56251275 6.88058953,9.64287 C6.88058953,9.72322725 6.92076816,9.81362916 6.98103609,9.87389709 L8.12612691,11.0189879 C8.18639484,11.0792558 8.27679675,11.1194345 8.357154,11.1194345 Z M11.250015,15.428592 C12.8471153,15.428592 14.142876,14.1328313 14.142876,12.535731 L14.142876,9.321441 C14.142876,9.14063719 14.0022508,9.000012 13.821447,9.000012 L13.178589,9.000012 C12.9977852,9.000012 12.85716,9.14063719 12.85716,9.321441 L12.85716,12.535731 C12.85716,13.4196607 12.1339447,14.142876 11.250015,14.142876 L2.892861,14.142876 C2.00893125,14.142876 1.285716,13.4196607 1.285716,12.535731 L1.285716,4.178577 C1.285716,3.29464725 2.00893125,2.571432 2.892861,2.571432 L9.964299,2.571432 C10.1451028,2.571432 10.285728,2.43080681 10.285728,2.250003 L10.285728,1.607145 C10.285728,1.42634119 10.1451028,1.285716 9.964299,1.285716 L2.892861,1.285716 C1.29576066,1.285716 0,2.58147666 0,4.178577 L0,12.535731 C0,14.1328313 1.29576066,15.428592 2.892861,15.428592 L11.250015,15.428592 Z" id="path-1"></path>
    </defs>
    <g id="Symbols" stroke="none" stroke-width="1" fill="none" fill-rule="evenodd">
        <g id="Icons/other-window" transform="translate(-3.000000, -4.000000)">
            <g id="Colors/Azul" transform="translate(3.000000, 4.000000)">
                <mask id="mask-2" fill="white">
                    <use xlink:href="#path-1"></use>
                </mask>
                <use id="Mask" fill="#b721ff" fill-rule="nonzero" xlink:href="#path-1"></use>
            </g>
        </g>
    </g>
</svg>
