<?xml version="1.0" encoding="UTF-8"?>
<svg width="16px" height="15px" viewBox="0 0 16 15" version="1.1" xmlns="http://www.w3.org/2000/svg" xmlns:xlink="http://www.w3.org/1999/xlink">
    <!-- Generator: Sketch 51.2 (57519) - http://www.bohemiancoding.com/sketch -->
    <title>icon/star-outline copy 42</title>
    <desc>Created with Sketch.</desc>
    <defs>
        <path d="M7.75684537,0.923382462 L5.98576753,4.60177489 L5.66788176,5.25268384 L0.945007534,5.94900504 L4.36606387,9.37006137 L4.26010195,10.0512452 L3.56378075,14.1383479 L7.75684537,11.8980101 L11.94991,14.1383479 L11.2535888,10.0512452 L11.1476269,9.37006137 L14.5686832,5.94900504 L9.83067155,5.25268384 L7.75684537,0.923382462 Z M7.75684537,0 C7.97886193,0 8.18069215,0.0555033088 8.36234206,0.166511591 C8.54399198,0.277519874 8.68022737,0.428892534 8.77105233,0.620634114 L10.5269928,4.26875171 L14.5686832,4.85911099 C14.7705164,4.88938597 14.9521636,4.97011806 15.1136302,5.10130967 C15.2750968,5.23250127 15.3911492,5.3990112 15.4617908,5.60084444 C15.5223408,5.79258602 15.5299094,5.9868476 15.484497,6.18363501 C15.4390845,6.38042242 15.3406922,6.55450098 15.1893173,6.70587591 L12.2375209,9.6576723 L12.9187047,13.7599124 C12.9590713,13.9617457 12.9363655,14.1585301 12.8505863,14.3502717 C12.7648072,14.5420133 12.6361404,14.6984317 12.4645822,14.8195316 C12.3636656,14.8901733 12.2577047,14.9406308 12.1466964,14.9709058 C12.0356881,15.0011808 11.9246815,15.0163181 11.8136732,15.0163181 C11.7228483,15.0163181 11.6320247,15.0062266 11.5411997,14.9860432 C11.4503748,14.9658599 11.3595512,14.9305396 11.2687262,14.8800813 L7.75684537,12.9879041 L4.22982711,14.8800813 C4.14909381,14.9305396 4.06331597,14.9658599 3.97249102,14.9860432 C3.88166606,15.0062266 3.79084246,15.0163181 3.7000175,15.0163181 C3.57891756,15.0163181 3.46538806,15.0011808 3.35942561,14.9709058 C3.25346316,14.9406308 3.15002517,14.8901733 3.04910855,14.8195316 C2.8775503,14.6984317 2.74888354,14.5420133 2.66310441,14.3502717 C2.57732528,14.1585301 2.55461938,13.9617457 2.59498603,13.7599124 L3.27616981,9.6576723 L0.324373421,6.70587591 C0.17299849,6.55450098 0.0746062606,6.38042242 0.0291937814,6.18363501 C-0.0162186979,5.9868476 -0.0086500649,5.79258602 0.0518999075,5.60084444 C0.122541542,5.40910286 0.238593915,5.24511581 0.400060508,5.10887837 C0.561527101,4.97264094 0.743174293,4.88938597 0.945007534,4.85911099 L4.98669798,4.26875171 L6.7426384,0.620634114 C6.83346336,0.428892534 6.96969875,0.277519874 7.15134867,0.166511591 C7.33299859,0.0555033088 7.5348288,0 7.75684537,0 Z" id="path-1"></path>
    </defs>
    <g id="Users" stroke="none" stroke-width="1" fill="none" fill-rule="evenodd">
        <g id="05-menu-copy-10" transform="translate(-864.000000, -490.000000)">
            <g id="icon/star-outline" transform="translate(863.000000, 489.000000)">
                <g id="color/gray" transform="translate(1.000000, 1.000000)">
                    <mask id="mask-2" fill="white">
                        <use xlink:href="#path-1"></use>
                    </mask>
                    <use id="Mask" fill="#8C734B" xlink:href="#path-1"></use>
                    <g id="color/yellow" mask="url(#mask-2)" fill="#8C734B">
                        <g transform="translate(-1.000000, -1.000000)" id="Rectangle-6">
                            <rect x="0" y="0" width="17" height="16"></rect>
                        </g>
                    </g>
                </g>
            </g>
        </g>
    </g>
</svg>