<?xml version="1.0" encoding="UTF-8"?>
<svg width="16px" height="16px" viewBox="0 0 16 16" version="1.1" xmlns="http://www.w3.org/2000/svg" xmlns:xlink="http://www.w3.org/1999/xlink">
    <!-- Generator: Sketch 51.2 (57519) - http://www.bohemiancoding.com/sketch -->
    <title>icon/star-outline copy 64</title>
    <desc>Created with Sketch.</desc>
    <defs>
        <path d="M7.89940463,0.5625 C8.1214212,0.5625 8.32325141,0.618003309 8.50490133,0.729011591 C8.68655125,0.840019874 8.82278664,0.991392534 8.9136116,1.18313411 L10.669552,4.83125171 L14.7112425,5.42161099 C14.9130757,5.45188597 15.0947229,5.53261806 15.2561895,5.66380967 C15.4176561,5.79500127 15.5337085,5.9615112 15.6043501,6.16334444 C15.6649001,6.35508602 15.6724687,6.5493476 15.6270562,6.74613501 C15.5816437,6.94292242 15.4832515,7.11700098 15.3318766,7.26837591 L12.3800802,10.2201723 L13.061264,14.3224124 C13.1016306,14.5242457 13.0789247,14.7210301 12.9931456,14.9127717 C12.9073665,15.1045133 12.7786997,15.2609317 12.6071414,15.3820316 C12.5062248,15.4526733 12.400264,15.5031308 12.2892557,15.5334058 C12.1782474,15.5636808 12.0672408,15.5788181 11.9562325,15.5788181 C11.8654075,15.5788181 11.7745839,15.5687266 11.683759,15.5485432 C11.592934,15.5283599 11.5021104,15.4930396 11.4112855,15.4425813 L7.89940463,13.5504041 L4.37238638,15.4425813 C4.29165308,15.4930396 4.20587524,15.5283599 4.11505028,15.5485432 C4.02422532,15.5687266 3.93340173,15.5788181 3.84257677,15.5788181 C3.72147682,15.5788181 3.60794733,15.5636808 3.50198488,15.5334058 C3.39602243,15.5031308 3.29258444,15.4526733 3.19166782,15.3820316 C3.02010957,15.2609317 2.8914428,15.1045133 2.80566368,14.9127717 C2.71988455,14.7210301 2.69717865,14.5242457 2.7375453,14.3224124 L3.41872908,10.2201723 L0.466932688,7.26837591 C0.315557757,7.11700098 0.217165528,6.94292242 0.171753049,6.74613501 C0.126340569,6.5493476 0.133909202,6.35508602 0.194459175,6.16334444 C0.265100809,5.97160286 0.381153182,5.80761581 0.542619775,5.67137837 C0.704086368,5.53514094 0.88573356,5.45188597 1.0875668,5.42161099 L5.12925725,4.83125171 L6.88519767,1.18313411 C6.97602263,0.991392534 7.11225802,0.840019874 7.29390794,0.729011591 C7.47555785,0.618003309 7.67738807,0.5625 7.89940463,0.5625 Z" id="path-1"></path>
    </defs>
    <g id="Users" stroke="none" stroke-width="1" fill="none" fill-rule="evenodd">
        <g id="05-menu-copy-10" transform="translate(-787.000000, -387.000000)">
            <g id="icon/star" transform="translate(787.000000, 387.000000)">
                <g id="Rectangle-5">
                    <mask id="mask-2" fill="white">
                        <use xlink:href="#path-1"></use>
                    </mask>
                    <use id="Mask" fill="#B79967" xlink:href="#path-1"></use>
                    <g id="color/yellow" mask="url(#mask-2)" fill="#B79967">
                        <rect id="Rectangle-6" x="0" y="0" width="16" height="16"></rect>
                    </g>
                </g>
            </g>
        </g>
    </g>
</svg>