<?xml version="1.0" encoding="utf-8"?>
<!-- Generator: Adobe Illustrator 22.1.0, SVG Export Plug-In . SVG Version: 6.00 Build 0)  -->
<svg version="1.1" id="Layer_1" xmlns="http://www.w3.org/2000/svg" xmlns:xlink="http://www.w3.org/1999/xlink" x="0px" y="0px"
	 viewBox="0 0 17 15" style="enable-background:new 0 0 17 15;" xml:space="preserve">
<style type="text/css">
	.st0{fill:#9B9B9B;}
</style>
<title>icon/star-outline copy 5</title>
<desc>Created with Sketch.</desc>
<path id="path-1_2_" class="st0" d="M8.5,0.9L6.7,4.6L6.4,5.2L1.7,5.9l3.4,3.4L5,10l-0.7,4.1l4.2-2.2l4.2,2.2L12,10l-0.1-0.7
	l3.4-3.4l-4.7-0.7L8.5,0.9z M8.5,0c0.2,0,0.4,0.1,0.6,0.2s0.3,0.3,0.4,0.5l1.8,3.6l4,0.6c0.2,0,0.4,0.1,0.5,0.2s0.3,0.3,0.3,0.5
	c0.1,0.2,0.1,0.4,0,0.6c0,0.2-0.1,0.4-0.3,0.5L13,9.6l0.7,4.1c0,0.2,0,0.4-0.1,0.6s-0.2,0.3-0.4,0.5c-0.1,0.1-0.2,0.1-0.3,0.2
	c-0.1,0-0.2,0-0.3,0c-0.1,0-0.2,0-0.3,0c-0.1,0-0.2-0.1-0.3-0.1L8.5,13L5,14.9c-0.1,0.1-0.2,0.1-0.3,0.1c-0.1,0-0.2,0-0.3,0
	c-0.1,0-0.2,0-0.3,0c-0.1,0-0.2-0.1-0.3-0.2c-0.2-0.1-0.3-0.3-0.4-0.5c-0.1-0.2-0.1-0.4-0.1-0.6L4,9.6L1.1,6.7
	C0.9,6.5,0.8,6.4,0.8,6.2c0-0.2,0-0.4,0-0.6C0.9,5.4,1,5.2,1.1,5.1s0.3-0.2,0.5-0.2l4-0.6l1.8-3.6c0.1-0.2,0.2-0.3,0.4-0.5
	C8.1,0.1,8.3,0,8.5,0z"/>
</svg>
