<svg width="42" height="33" viewBox="0 0 42 33" fill="none" xmlns="http://www.w3.org/2000/svg">
<path d="M40.9656 1.06465C40.3024 0.382921 39.4034 0 38.466 0C37.5287 0 36.6297 0.382921 35.9665 1.06465L13.447 24.2662L5.9484 16.5C5.27789 15.857 4.39104 15.5069 3.47469 15.5235C2.55834 15.5402 1.68405 15.9222 1.03599 16.5892C0.387934 17.2562 0.0167189 18.156 0.000551064 19.0991C-0.0156168 20.0423 0.324525 20.955 0.949316 21.6451L10.9475 31.9353C11.6107 32.6171 12.5097 33 13.447 33C14.3844 33 15.2834 32.6171 15.9466 31.9353L40.9656 6.20977C41.6279 5.52719 42 4.60192 42 3.63721C42 2.6725 41.6279 1.74723 40.9656 1.06465Z" fill="#32CF69"/>
</svg>
