<svg width="34" height="34" viewBox="0 0 34 34" fill="none" xmlns="http://www.w3.org/2000/svg">
<path d="M4.34023 0.749592L17 13.4094L29.6598 0.749592C30.6592 -0.249864 32.2633 -0.249864 33.2504 0.749592C34.2499 1.74905 34.2499 3.35311 33.2504 4.34023L20.5906 17L33.2504 29.6598C34.2499 30.6592 34.2499 32.2633 33.2504 33.2504C32.251 34.2499 30.6469 34.2499 29.6598 33.2504L17 20.5906L4.34023 33.2504C3.34077 34.2499 1.73671 34.2499 0.749592 33.2504C-0.249863 32.251 -0.249863 30.6469 0.749592 29.6598L13.4094 17L0.749592 4.34023C-0.249863 3.34077 -0.249863 1.73671 0.749592 0.749592C1.73671 -0.249864 3.34077 -0.249864 4.34023 0.749592Z" fill="#CC1F20"/>
</svg>
