<?xml version="1.0" encoding="utf-8"?>
<!-- Generator: Adobe Illustrator 22.1.0, SVG Export Plug-In . SVG Version: 6.00 Build 0)  -->
<svg version="1.1" id="Layer_1" xmlns="http://www.w3.org/2000/svg" xmlns:xlink="http://www.w3.org/1999/xlink" x="0px" y="0px"
	 viewBox="0 0 20 21" style="enable-background:new 0 0 20 21;" xml:space="preserve">
<style type="text/css">
	.st0{enable-background:new    ;}
	.st1{fill:#b721ff ;}
</style>
<title>Pencil - simple-line-icons</title>
<desc>Created with Sketch.</desc>
<g id="Page-1">
	<g id="_x30_5-menu-copy-5" transform="translate(-1327.000000, -475.000000)">
		<g class="st0">
			<path class="st1" d="M1345.8,476.2c0.4,0.4,0.7,0.7,0.9,1.1s0.3,0.8,0.3,1.2c0,0.4-0.1,0.8-0.3,1.3s-0.5,0.8-0.9,1.2
				c-0.2,0.2-0.9,0.9-2.2,2.2c-1.3,1.3-2.7,2.6-4.1,4.1c-1.5,1.5-2.8,2.8-4.1,4c-1.2,1.2-1.9,1.9-2,2c0,0-0.1,0.1-0.1,0.1
				c0,0-0.1,0-0.1,0.1c-0.2,0.1-0.6,0.2-1.2,0.4s-1.2,0.4-1.8,0.6c-0.6,0.2-1.2,0.4-1.7,0.5c-0.5,0.2-0.7,0.2-0.8,0.2
				c0,0-0.1,0-0.1,0c0,0-0.1,0-0.1,0c-0.1,0-0.2,0-0.2,0s-0.1-0.1-0.2-0.1c-0.1-0.1-0.1-0.2-0.2-0.3s0-0.2,0-0.4
				c0,0,0.1-0.3,0.2-0.7c0.1-0.5,0.3-1,0.5-1.7c0.2-0.6,0.4-1.2,0.5-1.8s0.3-1,0.4-1.3c0-0.1,0.1-0.1,0.1-0.1c0,0,0.1-0.1,0.1-0.1
				c2.5-2.5,4.5-4.5,6.1-6.1s2.9-2.9,4.2-4.2c1.3-1.3,2-2,2.1-2.1c0.1-0.1,0.4-0.3,0.8-0.6s1-0.4,1.6-0.4c0.4,0,0.8,0.1,1.2,0.3
				S1345.5,475.9,1345.8,476.2z M1329.7,489.7c-0.1,0.5-0.3,1.1-0.6,1.9s-0.5,1.5-0.7,2.1c0.6-0.2,1.3-0.4,2.1-0.7
				c0.8-0.3,1.4-0.5,1.9-0.6c-0.1-0.2-0.2-0.4-0.3-0.7c-0.1-0.3-0.4-0.6-0.6-0.8c-0.4-0.4-0.7-0.6-1-0.8
				C1330.2,489.9,1329.9,489.8,1329.7,489.7z M1341,478.3c-0.6,0.6-1.4,1.4-2.3,2.3c-1,1-1.9,1.9-2.9,2.9c-1,1-2,2-2.9,2.9
				c-0.9,0.9-1.7,1.7-2.2,2.2c0.3,0.1,0.5,0.3,0.9,0.4c0.3,0.2,0.6,0.5,1,0.8c0.3,0.3,0.5,0.5,0.7,0.8s0.3,0.5,0.4,0.8
				c0.5-0.5,1.3-1.3,2.2-2.2s1.9-1.9,2.9-2.9c1-1,2-2,2.9-2.9c0.9-0.9,1.7-1.7,2.3-2.3c0-0.1-0.1-0.3-0.2-0.7s-0.4-0.8-0.8-1.2
				c-0.4-0.4-0.8-0.6-1.1-0.8C1341.4,478.4,1341.1,478.3,1341,478.3z M1345,480.1c0.3-0.3,0.5-0.5,0.6-0.8c0.1-0.3,0.2-0.5,0.2-0.7
				s-0.1-0.5-0.2-0.7s-0.3-0.5-0.6-0.7c-0.2-0.2-0.4-0.4-0.7-0.5c-0.2-0.1-0.5-0.2-0.7-0.2c-0.4,0-0.8,0.1-1,0.3s-0.5,0.3-0.5,0.4
				c0,0,0,0,0,0c0,0,0,0-0.1,0.1c0.2,0.1,0.5,0.3,0.8,0.4c0.3,0.2,0.6,0.4,0.9,0.8c0.3,0.3,0.5,0.6,0.7,0.9c0.2,0.3,0.3,0.6,0.4,0.9
				C1344.9,480.2,1344.9,480.2,1345,480.1C1344.9,480.2,1345,480.1,1345,480.1z"/>
		</g>
	</g>
</g>
</svg>
