<?xml version="1.0" encoding="UTF-8"?>
<svg width="12px" height="15px" viewBox="0 0 12 15" version="1.1" xmlns="http://www.w3.org/2000/svg" xmlns:xlink="http://www.w3.org/1999/xlink">
    <!-- Generator: Sketch 61.2 (89653) - https://sketch.com -->
    <title></title>
    <desc>Created with Sketch.</desc>
    <g id="Adm--Valoraciones-Resultados" stroke="none" stroke-width="1" fill="none" fill-rule="evenodd">
        <g id="Lighthouse-Adm---Generar-Valoraciones-Copy" transform="translate(-25.000000, -164.000000)" fill="#b721ff" fill-rule="nonzero">
            <path d="M30.7142925,171.285707 C32.6071519,171.285707 34.142868,169.749991 34.142868,167.857132 C34.142868,165.964273 32.6071519,164.428556 30.7142925,164.428556 C28.8214331,164.428556 27.285717,165.964273 27.285717,167.857132 C27.285717,169.749991 28.8214331,171.285707 30.7142925,171.285707 Z M34.5267971,178.142859 C35.5714412,178.142859 36.4285851,177.080357 36.4285851,175.776784 C36.4285851,173.428567 35.8482272,170.714278 33.5089387,170.714278 C32.7857236,171.419636 31.8035795,171.857137 30.7142925,171.857137 C29.6250055,171.857137 28.6428615,171.419636 27.9196463,170.714278 C25.5803578,170.714278 25,173.428567 25,175.776784 C25,177.080357 25.8571439,178.142859 26.901788,178.142859 L34.5267971,178.142859 Z" id=""></path>
        </g>
    </g>
</svg>
