<svg width="50" height="50" viewBox="0 0 50 50" fill="none" xmlns="http://www.w3.org/2000/svg">
<path d="M48.5872 9.65898L43.4615 2.82051C42.1359 1.05385 40.0282 0 37.8205 0H7.05128C3.16154 0 0 3.16154 0 7.05128V42.9487C0 46.8385 3.16154 50 7.05128 50H42.9487C46.8385 50 50 46.8385 50 42.9487V13.8897C50 12.3744 49.5 10.8718 48.5872 9.65898ZM16.6667 3.84615H33.3333V12.1795C33.3333 12.5333 33.0462 12.8205 32.6923 12.8205H17.3077C16.9538 12.8205 16.6667 12.5333 16.6667 12.1795V3.84615ZM11.5385 46.1538V30.1282C11.5385 28.3615 12.9769 26.9231 14.7436 26.9231H35.2564C37.0231 26.9231 38.4615 28.3615 38.4615 30.1282V46.1538H11.5385ZM46.1538 42.9487C46.1538 44.7154 44.7154 46.1538 42.9487 46.1538H42.3077V30.1282C42.3077 26.2385 39.1462 23.0769 35.2564 23.0769H14.7436C10.8538 23.0769 7.69231 26.2385 7.69231 30.1282V46.1538H7.05128C5.28462 46.1538 3.84615 44.7154 3.84615 42.9487V7.05128C3.84615 5.28462 5.28462 3.84615 7.05128 3.84615H12.8205V12.1795C12.8205 14.6538 14.8333 16.6667 17.3077 16.6667H32.6923C35.1667 16.6667 37.1795 14.6538 37.1795 12.1795V3.84615H37.8205C38.8256 3.84615 39.7846 4.32564 40.3846 5.12821L45.5128 11.9667C45.9256 12.5179 46.1538 13.2 46.1538 13.8897V42.9487Z" fill="white"/>
</svg>
