<?xml version="1.0" encoding="UTF-8"?>
<svg width="15px" height="16px" viewBox="0 0 15 16" version="1.1" xmlns="http://www.w3.org/2000/svg" xmlns:xlink="http://www.w3.org/1999/xlink">
    <!-- Generator: Sketch 61.2 (89653) - https://sketch.com -->
    <title></title>
    <desc>Created with Sketch.</desc>
    <g id="Adm--Valoraciones-Resultados" stroke="none" stroke-width="1" fill="none" fill-rule="evenodd">
        <g id="Lighthouse-Adm---Generar-Valoraciones-Copy" transform="translate(-27.000000, -420.000000)" fill="#CC1F20" fill-rule="nonzero">
            <path d="M40.7143021,435.285717 C41.3393028,435.285717 41.8571606,434.767859 41.8571606,434.142859 C41.8571606,433.839287 41.7321604,433.544644 41.526803,433.339286 L38.4642994,430.276782 C39.1875145,429.232138 39.5714436,427.982137 39.5714436,426.714278 C39.5714436,423.24106 36.7589402,420.428556 33.2857218,420.428556 C29.8125034,420.428556 27,423.24106 27,426.714278 C27,430.187497 29.8125034,433 33.2857218,433 C34.5535804,433 35.8035819,432.616071 36.848226,431.892856 L39.9107297,434.946431 C40.1160871,435.160717 40.4107303,435.285717 40.7143021,435.285717 Z M33.285717,430.714273 C31.080362,430.714273 29.285717,428.919638 29.285717,426.714273 C29.285717,424.508918 31.080362,422.714273 33.285717,422.714273 C35.4910816,422.714273 37.285717,424.508918 37.285717,426.714273 C37.285717,428.919638 35.4910816,430.714273 33.285717,430.714273 Z" id=""></path>
        </g>
    </g>
</svg>
