<svg width="43" height="33" viewBox="0 0 43 33" fill="none" xmlns="http://www.w3.org/2000/svg">
<path d="M8.43357 0.672181C7.80617 -0.22406 6.46159 -0.22406 5.78951 0.672181L0.27689 8.60471C-0.440239 9.68037 0.321593 11.1143 1.5764 11.1143H4.71376V30.3852C4.71376 31.7298 5.78943 32.7605 7.08901 32.7605C8.3886 32.7605 9.46426 31.6848 9.46426 30.3852V11.1143H12.5567C13.8562 11.1143 14.6184 9.68005 13.8562 8.60471L8.43357 0.672181Z" fill="black"/>
<path d="M19.7271 4.88332H30.6174C31.9619 4.88332 32.9926 3.80765 32.9926 2.50806C32.9926 1.20856 31.9169 0.132812 30.6174 0.132812H19.7271C18.3825 0.132812 17.3518 1.20848 17.3518 2.50806C17.3518 3.80757 18.3828 4.88332 19.7271 4.88332Z" fill="black"/>
<path d="M40.208 28.1016H19.7271C18.3825 28.1016 17.3518 29.1772 17.3518 30.4768C17.3518 31.7764 18.4275 32.8521 19.7271 32.8521H40.208C41.5526 32.8521 42.5833 31.7764 42.5833 30.4768C42.5833 29.177 41.5076 28.1016 40.208 28.1016Z" fill="black"/>
<path d="M19.7271 23.5764H36.9812C38.3258 23.5764 39.3565 22.5007 39.3565 21.2012C39.3565 19.9016 38.3258 18.7812 36.9812 18.7812H19.7271C18.3825 18.7812 17.3518 19.8569 17.3518 21.1565C17.3518 22.4561 18.3828 23.5764 19.7271 23.5764Z" fill="black"/>
<path d="M19.7271 14.2036H33.7993C35.1439 14.2036 36.1746 13.128 36.1746 11.8284C36.1746 10.5289 35.0989 9.45312 33.7993 9.45312H19.7271C18.3825 9.45312 17.3518 10.5288 17.3518 11.8284C17.3518 13.1279 18.3828 14.2036 19.7271 14.2036Z" fill="black"/>
</svg>
