<svg width="43" height="33" viewBox="0 0 43 33" fill="none" xmlns="http://www.w3.org/2000/svg">
<path d="M5.98366 32.2028C6.61107 33.0991 7.95565 33.0991 8.62773 32.2028L14.1403 24.2703C14.8575 23.1946 14.0956 21.7607 12.8408 21.7607L9.70348 21.7607L9.70348 2.48976C9.70348 1.1452 8.62781 0.114512 7.32823 0.114511C6.02864 0.114511 4.95298 1.19018 4.95298 2.48976L4.95297 21.7607L1.86058 21.7607C0.561079 21.7607 -0.201114 23.1949 0.561079 24.2703L5.98366 32.2028Z" fill="black"/>
<path d="M40.4656 28.2182L29.5753 28.2182C28.2307 28.2182 27.2 29.2939 27.2 30.5935C27.2 31.893 28.2757 32.9688 29.5753 32.9688L40.4656 32.9688C41.8101 32.9688 42.8408 31.8931 42.8408 30.5935C42.8408 29.294 41.8098 28.2182 40.4656 28.2182Z" fill="black"/>
<path d="M19.9846 5L40.4656 5C41.8101 5 42.8408 3.92433 42.8408 2.62475C42.8408 1.32516 41.7652 0.249498 40.4656 0.249498L19.9846 0.2495C18.6401 0.2495 17.6094 1.32517 17.6094 2.62475C17.6094 3.92458 18.685 5 19.9846 5Z" fill="black"/>
<path d="M40.4656 9.52515L23.2114 9.52516C21.8668 9.52516 20.8361 10.6008 20.8361 11.9004C20.8361 13.2 21.8668 14.3203 23.2114 14.3203L40.4656 14.3203C41.8101 14.3203 42.8408 13.2446 42.8408 11.9451C42.8408 10.6455 41.8098 9.52515 40.4656 9.52515Z" fill="black"/>
<path d="M40.4656 18.8979L26.3933 18.8979C25.0488 18.8979 24.0181 19.9736 24.0181 21.2732C24.0181 22.5727 25.0937 23.6484 26.3933 23.6484L40.4656 23.6484C41.8101 23.6484 42.8408 22.5728 42.8408 21.2732C42.8408 19.9737 41.8098 18.8979 40.4656 18.8979Z" fill="black"/>
</svg>
