<svg width="35" height="33" viewBox="0 0 35 33" fill="none" xmlns="http://www.w3.org/2000/svg">
<path fill-rule="evenodd" clip-rule="evenodd" d="M12.1545 10.7439H2.47562C1.40256 10.7439 0.451921 11.4236 0.121486 12.4273C-0.210044 13.4311 0.152429 14.5299 1.02021 15.1512L8.85105 20.7508L5.85953 29.8103C5.52883 30.8139 5.89158 31.9141 6.75939 32.534C7.62692 33.1553 8.80162 33.1553 9.66915 32.534L17.5 26.9354L25.3308 32.534C26.1984 33.1553 27.3731 33.1553 28.2406 32.534C29.1084 31.9141 29.4711 30.8139 29.1404 29.8103L26.1489 20.7508L33.9798 15.1512C34.8476 14.5299 35.2101 13.4311 34.8785 12.4273C34.5481 11.4236 33.5974 10.7439 32.5244 10.7439H22.8454L19.8539 1.68368C19.5221 0.679792 18.5717 0 17.4998 0C16.4278 0 15.4774 0.679764 15.1456 1.68368L12.1545 10.7439Z" fill="#E61717"/>
</svg>
