<svg width="35" height="33" viewBox="0 0 35 35" fill="none" xmlns="http://www.w3.org/2000/svg">
<mask id="mask0_161_3930" style="mask-type:alpha" maskUnits="userSpaceOnUse" x="0" y="0" width="35" height="35">
<path fill-rule="evenodd" clip-rule="evenodd" d="M14.4194 2.91076C15.4699 0.238082 19.4388 0.238082 20.4893 2.91076L23.5522 10.7015C23.562 10.7268 23.5843 10.7419 23.6069 10.7445L32.0673 11.7535C34.8863 12.0894 35.911 15.4616 33.7412 17.1865L27.5411 22.1156C27.5204 22.132 27.5097 22.16 27.5169 22.1881L29.6336 30.264C30.3218 32.8898 27.3687 35.0479 24.8793 33.691L17.4859 29.6611C17.4662 29.6502 17.4423 29.6502 17.4227 29.6611L10.0292 33.691C7.53986 35.0478 4.58696 32.8897 5.2749 30.264L7.39135 22.1881C7.39879 22.16 7.38816 22.132 7.36744 22.1156L1.16736 17.1865C-1.00246 15.4616 0.0225414 12.0895 2.84127 11.7535L11.3009 10.7445C11.3238 10.7419 11.3461 10.7268 11.3559 10.7015L14.4194 2.91076ZM17.4092 3.93435C17.4082 3.93536 17.4007 3.94445 17.3914 3.9677L14.3291 11.7585C13.9071 12.8319 12.8942 13.5963 11.6966 13.739L3.23623 14.748C3.21525 14.7502 3.20648 14.7543 3.20515 14.7548C3.20356 14.7555 3.20276 14.7558 3.2017 14.7568C3.19851 14.7596 3.18682 14.772 3.17965 14.796C3.17222 14.82 3.17487 14.8369 3.17647 14.8422C3.177 14.8442 3.17753 14.8457 3.17886 14.8477C3.18018 14.8495 3.18576 14.8578 3.2025 14.871L9.40285 19.8001C10.3577 20.5591 10.7713 21.7707 10.4706 22.9179L8.35418 30.9938C8.3486 31.0153 8.34913 31.0259 8.3494 31.0284C8.3494 31.031 8.34993 31.0325 8.35073 31.0345C8.35259 31.0393 8.36055 31.0537 8.38048 31.0681C8.40066 31.0825 8.41607 31.0853 8.41899 31.0855H8.42032C8.41979 31.0855 8.42058 31.0853 8.42032 31.0855C8.42138 31.0853 8.43227 31.083 8.4514 31.0726L15.8442 27.0427C16.8416 26.4988 18.0666 26.4988 19.064 27.0427L26.4568 31.0726C26.4759 31.083 26.4857 31.085 26.4868 31.0853C26.4881 31.0855 26.4884 31.0855 26.4889 31.0855C26.4919 31.0853 26.5075 31.0825 26.5275 31.0681C26.5476 31.0537 26.5556 31.0393 26.5575 31.0345C26.5583 31.0325 26.5585 31.031 26.5588 31.0284C26.5591 31.0259 26.5593 31.0153 26.5537 30.9938L24.4376 22.9179C24.1369 21.7707 24.5502 20.5591 25.5054 19.8001L31.7054 14.871C31.7224 14.8578 31.728 14.8495 31.7291 14.8477C31.7307 14.8457 31.7312 14.8442 31.7317 14.8422C31.7333 14.8369 31.736 14.82 31.7285 14.796C31.7211 14.772 31.7097 14.7596 31.7062 14.7568C31.7054 14.7558 31.7046 14.7555 31.703 14.7548C31.702 14.7543 31.6929 14.7502 31.672 14.748L23.2116 13.739C22.014 13.5963 21.0011 12.8319 20.5791 11.7585L17.5168 3.9677C17.5072 3.9442 17.4998 3.93536 17.499 3.93435C17.4982 3.93334 17.4979 3.93334 17.4976 3.93309C17.4958 3.93182 17.4809 3.92424 17.4538 3.92424C17.4267 3.92424 17.4118 3.93182 17.41 3.93309C17.4097 3.93334 17.4103 3.93309 17.4092 3.93435Z" fill="#C4C4C4"/>
</mask>
<g mask="url(#mask0_161_3930)">
<rect x="17.2163" y="0.90625" width="18.446" height="33.2028" fill="#D9D9D9"/>
</g>
<mask id="mask1_161_3930" style="mask-type:alpha" maskUnits="userSpaceOnUse" x="0" y="0" width="35" height="35">
<path fill-rule="evenodd" clip-rule="evenodd" d="M14.4194 2.91076C15.4699 0.238082 19.4388 0.238082 20.4893 2.91076L23.5522 10.7015C23.562 10.7268 23.5843 10.7419 23.6069 10.7445L32.0673 11.7535C34.8863 12.0894 35.911 15.4616 33.7412 17.1865L27.5411 22.1156C27.5204 22.132 27.5097 22.16 27.5169 22.1881L29.6336 30.264C30.3218 32.8898 27.3687 35.0479 24.8793 33.691L17.4859 29.6611C17.4662 29.6502 17.4423 29.6502 17.4227 29.6611L10.0292 33.691C7.53986 35.0478 4.58696 32.8897 5.2749 30.264L7.39135 22.1881C7.39879 22.16 7.38816 22.132 7.36744 22.1156L1.16736 17.1865C-1.00246 15.4616 0.0225414 12.0895 2.84127 11.7535L11.3009 10.7445C11.3238 10.7419 11.3461 10.7268 11.3559 10.7015L14.4194 2.91076ZM17.4092 3.93435C17.4082 3.93536 17.4007 3.94445 17.3914 3.9677L14.3291 11.7585C13.9071 12.8319 12.8942 13.5963 11.6966 13.739L3.23623 14.748C3.21525 14.7502 3.20648 14.7543 3.20515 14.7548C3.20356 14.7555 3.20276 14.7558 3.2017 14.7568C3.19851 14.7596 3.18682 14.772 3.17965 14.796C3.17222 14.82 3.17487 14.8369 3.17647 14.8422C3.177 14.8442 3.17753 14.8457 3.17886 14.8477C3.18018 14.8495 3.18576 14.8578 3.2025 14.871L9.40285 19.8001C10.3577 20.5591 10.7713 21.7707 10.4706 22.9179L8.35418 30.9938C8.3486 31.0153 8.34913 31.0259 8.3494 31.0284C8.3494 31.031 8.34993 31.0325 8.35073 31.0345C8.35259 31.0393 8.36055 31.0537 8.38048 31.0681C8.40066 31.0825 8.41607 31.0853 8.41899 31.0855H8.42032C8.41979 31.0855 8.42058 31.0853 8.42032 31.0855C8.42138 31.0853 8.43227 31.083 8.4514 31.0726L15.8442 27.0427C16.8416 26.4988 18.0666 26.4988 19.064 27.0427L26.4568 31.0726C26.4759 31.083 26.4857 31.085 26.4868 31.0853C26.4881 31.0855 26.4884 31.0855 26.4889 31.0855C26.4919 31.0853 26.5075 31.0825 26.5275 31.0681C26.5476 31.0537 26.5556 31.0393 26.5575 31.0345C26.5583 31.0325 26.5585 31.031 26.5588 31.0284C26.5591 31.0259 26.5593 31.0153 26.5537 30.9938L24.4376 22.9179C24.1369 21.7707 24.5502 20.5591 25.5054 19.8001L31.7054 14.871C31.7224 14.8578 31.728 14.8495 31.7291 14.8477C31.7307 14.8457 31.7312 14.8442 31.7317 14.8422C31.7333 14.8369 31.736 14.82 31.7285 14.796C31.7211 14.772 31.7097 14.7596 31.7062 14.7568C31.7054 14.7558 31.7046 14.7555 31.703 14.7548C31.702 14.7543 31.6929 14.7502 31.672 14.748L23.2116 13.739C22.014 13.5963 21.0011 12.8319 20.5791 11.7585L17.5168 3.9677C17.5072 3.9442 17.4998 3.93536 17.499 3.93435C17.4982 3.93334 17.4979 3.93334 17.4976 3.93309C17.4958 3.93182 17.4809 3.92424 17.4538 3.92424C17.4267 3.92424 17.4118 3.93182 17.41 3.93309C17.4097 3.93334 17.4103 3.93309 17.4092 3.93435Z" fill="#C4C4C4"/>
</mask>
<g mask="url(#mask1_161_3930)">
<rect y="0.90625" width="17.2163" height="33.2028" fill="#E61717"/>
</g>
<path d="M17.2163 26.7306V3.98047L12.2973 12.5886L1.8446 14.4332L9.83788 21.1967L7.37841 32.2644L17.2163 26.7306Z" fill="#E61717"/>
</svg>
