<svg width="35" height="33" viewBox="0 0 35 33" fill="none" xmlns="http://www.w3.org/2000/svg">
<path fill-rule="evenodd" clip-rule="evenodd" d="M14.4572 1.99226C15.5104 -0.664087 19.4897 -0.664087 20.543 1.99226L23.6139 9.73544C23.6237 9.76055 23.6461 9.77561 23.6687 9.77813L32.1512 10.7809C34.9776 11.1149 36.005 14.4665 33.8295 16.1808L27.6132 21.0798C27.5924 21.0961 27.5818 21.1239 27.589 21.1518L29.7112 29.1784C30.4012 31.7881 27.4403 33.933 24.9445 32.5845L17.5317 28.5791C17.512 28.5684 17.488 28.5684 17.4683 28.5791L10.0555 32.5845C7.5596 33.933 4.59897 31.7881 5.28871 29.1784L7.4107 21.1518C7.41816 21.1239 7.40751 21.0961 7.38673 21.0798L1.17042 16.1808C-1.00509 14.4665 0.0226005 11.1149 2.84871 10.7809L11.3305 9.77813C11.3534 9.77561 11.3758 9.76055 11.3857 9.73544L14.4572 1.99226ZM17.4548 3.0096C17.4537 3.01061 17.4463 3.01965 17.437 3.04274L14.3666 10.7859C13.9435 11.8528 12.928 12.6125 11.7272 12.7543L3.2447 13.7572C3.22366 13.7594 3.21488 13.7634 3.21354 13.7639C3.21195 13.7647 3.21115 13.7649 3.21008 13.7659C3.20689 13.7687 3.19517 13.781 3.18798 13.8049C3.18052 13.8287 3.18318 13.8455 3.18478 13.8508C3.18532 13.8528 3.18585 13.8543 3.18718 13.8563C3.18851 13.8581 3.1941 13.8664 3.21088 13.8794L9.42747 18.7784C10.3849 19.5328 10.7995 20.737 10.498 21.8771L8.37606 29.9038C8.37046 29.9251 8.371 29.9357 8.37126 29.9382C8.37126 29.9407 8.37179 29.9422 8.37259 29.9442C8.37446 29.949 8.38245 29.9633 8.40242 29.9776C8.42266 29.9919 8.43811 29.9947 8.44104 29.9949H8.44237C8.44183 29.9949 8.44263 29.9947 8.44237 29.9949C8.44343 29.9947 8.45435 29.9924 8.47353 29.9821L15.8857 25.9768C16.8857 25.4362 18.1139 25.4362 19.1139 25.9768L26.5261 29.9821C26.5452 29.9924 26.5551 29.9944 26.5562 29.9947C26.5575 29.9949 26.5578 29.9949 26.5583 29.9949C26.5612 29.9947 26.5769 29.9919 26.5969 29.9776C26.6172 29.9633 26.6251 29.949 26.627 29.9442C26.6278 29.9422 26.6281 29.9407 26.6283 29.9382C26.6286 29.9357 26.6289 29.9251 26.6233 29.9038L24.5016 21.8771C24.2001 20.737 24.6145 19.5328 25.5721 18.7784L31.7885 13.8794C31.8055 13.8664 31.8111 13.8581 31.8122 13.8563C31.8138 13.8543 31.8143 13.8528 31.8148 13.8508C31.8164 13.8455 31.8191 13.8287 31.8116 13.8049C31.8042 13.781 31.7927 13.7687 31.7893 13.7659C31.7885 13.7649 31.7877 13.7647 31.7861 13.7639C31.785 13.7634 31.7759 13.7594 31.7549 13.7572L23.2724 12.7543C22.0716 12.6125 21.0561 11.8528 20.633 10.7859L17.5626 3.04274C17.553 3.01939 17.5456 3.01061 17.5448 3.0096C17.544 3.0086 17.5437 3.0086 17.5435 3.00835C17.5416 3.00709 17.5267 2.99956 17.4995 2.99956C17.4724 2.99956 17.4574 3.00709 17.4556 3.00835C17.4553 3.0086 17.4559 3.00835 17.4548 3.0096Z" fill="#C4C4C4"/>
</svg>
