<?xml version="1.0" encoding="UTF-8"?>
<svg width="40px" height="40px" viewBox="0 0 40 40" version="1.1" xmlns="http://www.w3.org/2000/svg" xmlns:xlink="http://www.w3.org/1999/xlink">
    <!-- Generator: Sketch 52.5 (67469) - http://www.bohemiancoding.com/sketch -->
    <title></title>
    <desc>Created with Sketch.</desc>
    <g id="Page-1" stroke="none" stroke-width="1" fill="none" fill-rule="evenodd">
        <g id="01-Inicio-Copy-3" transform="translate(-1876.000000, -119.000000)" fill="#CC1F20">
            <g id="Group-2" transform="translate(1773.000000, 119.000000)">
                <path d="M116.320312,4.1796875 C114.263011,5.0390668 112.440112,6.26301289 110.851562,7.8515625 C109.263013,9.44011211 108.026046,11.2630105 107.140625,13.3203125 C106.255204,15.429698 105.8125,17.6562383 105.8125,20 C105.8125,22.3437617 106.268225,24.570302 107.179688,26.6796875 C108.039067,28.7369895 109.263013,30.5598879 110.851562,32.1484375 C112.440112,33.7369871 114.263011,34.9739539 116.320312,35.859375 C118.429698,36.7447961 120.656238,37.1875 123,37.1875 C125.343762,37.1875 127.570302,36.7317754 129.679688,35.8203125 C131.736989,34.9609332 133.559888,33.7369871 135.148438,32.1484375 C136.736987,30.5598879 137.973954,28.7369895 138.859375,26.6796875 C139.744796,24.570302 140.1875,22.3437617 140.1875,20 C140.1875,17.6562383 139.731775,15.429698 138.820312,13.3203125 C137.960933,11.2630105 136.736987,9.44011211 135.148438,7.8515625 C133.559888,6.26301289 131.736989,5.02604609 129.679688,4.140625 C127.570302,3.25520391 125.343762,2.8125 123,2.8125 C120.656238,2.8125 118.429698,3.26822461 116.320312,4.1796875 Z M123,0 C126.61981,0 129.96613,0.891918164 133.039062,2.67578125 C136.111995,4.45964434 138.540356,6.88800547 140.324219,9.9609375 C142.108082,13.0338695 143,16.3801902 143,20 C143,23.6198098 142.108082,26.9661305 140.324219,30.0390625 C138.540356,33.1119945 136.111995,35.5403557 133.039062,37.3242188 C129.96613,39.1080818 126.61981,40 123,40 C119.38019,40 116.03387,39.1080818 112.960938,37.3242188 C109.888005,35.5403557 107.459644,33.1119945 105.675781,30.0390625 C103.891918,26.9661305 103,23.6198098 103,20 C103,16.3801902 103.891918,13.0338695 105.675781,9.9609375 C107.459644,6.88800547 109.888005,4.45964434 112.960938,2.67578125 C116.03387,0.891918164 119.38019,0 123,0 Z M124.09375,22.5703125 C123.80729,22.8567723 123.442711,23 123,23 C122.557289,23 122.186199,22.8502619 121.886719,22.5507812 C121.587238,22.2513006 121.4375,21.8802105 121.4375,21.4375 L121.4375,12.0234375 C121.4375,11.580727 121.587238,11.2096369 121.886719,10.9101562 C122.186199,10.6106756 122.557289,10.4609375 123,10.4609375 C123.442711,10.4609375 123.813801,10.6106756 124.113281,10.9101562 C124.412762,11.2096369 124.5625,11.580727 124.5625,12.0234375 L124.5625,21.4375 C124.5625,21.8802105 124.406252,22.2578109 124.09375,22.5703125 Z M121.75,30.5078125 C121.411457,30.1692691 121.242188,29.7526066 121.242188,29.2578125 C121.242188,28.7630184 121.411457,28.3463559 121.75,28.0078125 C122.088543,27.6692691 122.505206,27.5 123,27.5 C123.494794,27.5 123.911457,27.6692691 124.25,28.0078125 C124.588543,28.3463559 124.757812,28.7630184 124.757812,29.2578125 C124.757812,29.7526066 124.588543,30.1692691 124.25,30.5078125 C123.911457,30.8463559 123.494794,31.015625 123,31.015625 C122.505206,31.015625 122.088543,30.8463559 121.75,30.5078125 Z" id="" transform="translate(123.000000, 20.000000) rotate(-180.000000) translate(-123.000000, -20.000000) "></path>
            </g>
        </g>
    </g>
</svg>
