<svg width="20" height="20" viewBox="0 0 20 20" fill="none" xmlns="http://www.w3.org/2000/svg">
<path fill-rule="evenodd" clip-rule="evenodd" d="M8.56622 2.33853L7.94771 0.0286244L6.7928 0.338452L7.41132 2.64836L8.56622 2.33853ZM6.61837 5.77341L3.23687 2.39068L2.39065 3.23692L5.77329 6.61851L6.61837 5.77341ZM2.6484 7.41153L0.338567 6.79299L0.0287484 7.94792L2.33859 8.56646L2.6484 7.41153ZM9.15483 8.30991L9.33135 8.48533L10.1765 7.6402L9.99993 7.46367C9.53355 6.99727 9.53355 6.23984 9.99993 5.77341L14.2276 1.54561C14.6941 1.07907 15.4514 1.07907 15.9178 1.54561L18.4543 4.08197C18.9218 4.54951 18.9218 5.30579 18.4543 5.77334L14.2276 10.0001C13.7601 10.4676 13.004 10.4676 12.5365 10.0001L12.3976 9.86118L11.5525 10.7063L11.6914 10.8463C12.6253 11.7791 14.1388 11.7791 15.0727 10.8463L19.3004 6.61851C20.2332 5.68457 20.2332 4.17086 19.3004 3.23692L16.764 0.700563C15.8301 -0.233521 14.3154 -0.233521 13.3815 0.700563L9.15486 4.92729C8.22095 5.86123 8.22095 7.37608 9.15486 8.31002L9.15483 8.30991ZM17.3525 12.5888L19.6612 13.2084L19.9712 12.0535L17.6613 11.4338L17.3525 12.5888ZM10.846 11.6915L10.7061 11.5526L9.86094 12.3977L9.99982 12.5366C10.4673 13.003 10.4673 13.7603 9.99982 14.2278L5.77321 18.4546C5.30568 18.9221 4.54942 18.9221 4.08189 18.4546L1.54561 15.9181C1.07908 15.4517 1.07908 14.6944 1.54561 14.2278L5.77328 10C6.23967 9.5336 6.99707 9.5336 7.4635 10L7.64002 10.1765L8.48512 9.33139L8.30972 9.15487C7.3758 8.22093 5.86099 8.22093 4.92822 9.15487L0.700543 13.3816C-0.233514 14.3155 -0.233514 15.8302 0.700543 16.7642L3.23683 19.2995C4.17074 20.2335 5.68441 20.2335 6.61833 19.2995L10.846 15.0728C11.7788 14.1389 11.7788 12.6253 10.846 11.6914L10.846 11.6915ZM13.3813 14.2278L16.7638 17.6094L17.6089 16.7643L14.2274 13.3817L13.3813 14.2278ZM11.4335 17.6617L12.0531 19.9716L13.208 19.6617L12.5884 17.3529L11.4335 17.6617Z" fill="#CC1F20"/>
</svg>
