<?xml version="1.0" encoding="UTF-8"?>
<svg width="22px" height="22px" viewBox="0 0 22 22" version="1.1" xmlns="http://www.w3.org/2000/svg" xmlns:xlink="http://www.w3.org/1999/xlink">
    <!-- Generator: Sketch 62 (91390) - https://sketch.com -->
    <title>up-arrow copy 2</title>
    <desc>Created with Sketch.</desc>
    <g id="Adm--Valoraciones-Resultados" stroke="none" stroke-width="1" fill="none" fill-rule="evenodd">
        <g id="Lighthouse-Adm---Valoraciones--Final" transform="translate(-1212.000000, -537.000000)" fill="#69BA3C" fill-rule="nonzero">
            <g id="up-arrow-copy-2" transform="translate(1223.000000, 548.000000) rotate(-315.000000) translate(-1223.000000, -548.000000) translate(1212.000000, 537.000000)">
                <path d="M10.9217979,21.8158363 C16.8459983,21.8158363 21.6659839,16.9958507 21.6659839,11.0716502 C21.6659839,5.14744974 16.8459983,0.327464159 10.9217979,0.327464159 C4.9975974,0.327464159 0.177611814,5.14744974 0.177611814,11.0716502 C0.177611814,16.9958507 4.9975974,21.8158363 10.9217979,21.8158363 Z M10.9217979,1.4010064 C16.2544546,1.4010064 20.5924417,5.73899343 20.5924417,11.0716502 C20.5924417,16.404307 16.2544546,20.742294 10.9217979,20.742294 C5.58914108,20.742294 1.25115406,16.404307 1.25115406,11.0716502 C1.25115406,5.73899343 5.58914108,1.4010064 10.9217979,1.4010064 Z" id="Shape"></path>
                <path d="M8.25395622,9.8216747 L10.3723416,7.75274971 L10.3723416,15.6577672 C10.3723416,15.950865 10.6150733,16.1879293 10.9151779,16.1879293 C11.2152825,16.1879293 11.4580142,15.950865 11.4580142,15.6577672 L11.4580142,7.75705997 L13.5763996,9.82598496 C13.6823189,9.9294312 13.8191313,9.98115433 13.9603569,9.98115433 C14.1015826,9.98115433 14.238395,9.9294312 14.3443143,9.82598496 C14.5561528,9.61909246 14.5561528,9.28720241 14.3443143,9.08030991 L11.3035486,6.11054051 C11.09171,5.90364801 10.7518857,5.90364801 10.5400472,6.11054051 L7.49928142,9.08030991 C7.28744288,9.28720241 7.28744288,9.61909246 7.49928142,9.82598496 C7.69788005,10.0285672 8.04211768,10.0285672 8.25395622,9.8216747 Z" id="Path"></path>
            </g>
        </g>
    </g>
</svg>