<svg width="19" height="20" viewBox="0 0 19 20" fill="none" xmlns="http://www.w3.org/2000/svg">
<path d="M18.7216 1.08263C18.351 0.728518 17.7504 0.728518 17.3798 1.08263L14.5344 3.80146C13.3494 1.47303 11.496 0 9.37662 0C5.71684 0 2.84927 4.39277 2.84927 10C2.84927 11.5739 3.07532 13.0515 3.48061 14.3636L0.277942 17.4239C-0.0926473 17.778 -0.0926473 18.3519 0.277942 18.706C0.463581 18.8834 0.706209 18.9717 0.948846 18.9717C1.19148 18.9717 1.43496 18.8834 1.61975 18.706L4.22667 16.215C5.41167 18.534 7.26183 20 9.37605 20C13.0358 20 15.9034 15.6072 15.9034 10C15.9034 8.43408 15.6798 6.9627 15.2779 5.65581L18.7215 2.36535C19.0928 2.01059 19.0928 1.43653 18.7215 1.08241L18.7216 1.08263ZM4.74735 9.99996C4.74735 5.56241 6.86727 1.81342 9.37684 1.81342C10.8772 1.81342 12.2386 3.15393 13.0903 5.18126L5.05195 12.8622C4.8556 11.9663 4.7475 11.0012 4.7475 9.99975L4.74735 9.99996ZM14.0063 9.99996C14.0063 14.4375 11.8864 18.1865 9.37684 18.1865C7.88066 18.1865 6.52315 16.8531 5.67077 14.836L13.707 7.15723C13.9 8.04761 14.0064 9.00646 14.0064 10L14.0063 9.99996Z" fill="#E61717"/>
</svg>
